{
    "asset" : {
        "generator" : "Khronos glTF Blender I/O v1.6.16",
        "version" : "2.0"
    },
    "scene" : 0,
    "scenes" : [
        {
            "name" : "Scene",
            "nodes" : [
                0,
                1
            ]
        }
    ],
    "nodes" : [
        {
            "name" : "\u5186"
        },
        {
            "mesh" : 0,
            "name" : "\u7acb\u65b9\u4f53",
            "translation" : [
                -0.9888831377029419,
                1.113690972328186,
                0
            ]
        }
    ],
    "materials" : [
        {
            "doubleSided" : true,
            "name" : "\u30de\u30c6\u30ea\u30a2\u30eb",
            "pbrMetallicRoughness" : {
                "baseColorTexture" : {
                    "index" : 0
                },
                "metallicFactor" : 0,
                "roughnessFactor" : 0.5
            }
        }
    ],
    "meshes" : [
        {
            "name" : "\u7acb\u65b9\u4f53",
            "primitives" : [
                {
                    "attributes" : {
                        "POSITION" : 0,
                        "NORMAL" : 1,
                        "TEXCOORD_0" : 2
                    },
                    "indices" : 3,
                    "material" : 0
                }
            ]
        }
    ],
    "textures" : [
        {
            "sampler" : 0,
            "source" : 0
        }
    ],
    "images" : [
        {
            "bufferView" : 4,
            "mimeType" : "image/jpeg",
            "name" : "tigerTexture"
        }
    ],
    "accessors" : [
        {
            "bufferView" : 0,
            "componentType" : 5126,
            "count" : 44282,
            "max" : [
                1.4103196859359741,
                0.1902744621038437,
                0.6512525677680969
            ],
            "min" : [
                0.5674465298652649,
                -0.9248793721199036,
                -0.6285645961761475
            ],
            "type" : "VEC3"
        },
        {
            "bufferView" : 1,
            "componentType" : 5126,
            "count" : 44282,
            "type" : "VEC3"
        },
        {
            "bufferView" : 2,
            "componentType" : 5126,
            "count" : 44282,
            "type" : "VEC2"
        },
        {
            "bufferView" : 3,
            "componentType" : 5123,
            "count" : 66432,
            "type" : "SCALAR"
        }
    ],
    "bufferViews" : [
        {
            "buffer" : 0,
            "byteLength" : 531384,
            "byteOffset" : 0
        },
        {
            "buffer" : 0,
            "byteLength" : 531384,
            "byteOffset" : 531384
        },
        {
            "buffer" : 0,
            "byteLength" : 354256,
            "byteOffset" : 1062768
        },
        {
            "buffer" : 0,
            "byteLength" : 132864,
            "byteOffset" : 1417024
        },
        {
            "buffer" : 0,
            "byteLength" : 462643,
            "byteOffset" : 1549888
        }
    ],
    "samplers" : [
        {
            "magFilter" : 9729,
            "minFilter" : 9987
        }
    ],
    "buffers" : [
        {
            "byteLength" : 2012532,
            "uri" : "data:application/octet-stream;base64,"
        }
    ]
}
