<svg xmlns="http://www.w3.org/2000/svg" viewBox="0 0 1139.43 499.76"><defs><style>.cls-1{fill:#f23333;}</style></defs><g id="レイヤー_2" data-name="レイヤー 2"><g id="レイヤー_2-2" data-name="レイヤー 2"><path d="M338.51,378.46v38.71H124.25V386.38L233.61,311.6c25.11-17.3,29.56-27.86,29.56-37.83,0-16.13-15.39-25.51-45.36-25.51-24.3,0-45,6.74-58.73,20.52L111.29,246.5c21.87-23.17,61.56-38.13,112.6-38.13,63.18,0,105.3,23.46,105.3,60.71,0,19.94-7.69,38.12-47.39,64.81l-65.2,44.57Z"/><path d="M361.92,314.53c0-67.74,51.84-106.16,121.5-106.16,70.07,0,121.51,38.42,121.51,106.16S553.49,420.69,483.42,420.69C413.76,420.69,361.92,382.28,361.92,314.53Zm177,0c0-46.63-22.68-66-55.49-66-32.4,0-55.08,19.35-55.08,66s22.68,66,55.08,66C516.23,380.52,538.91,361.16,538.91,314.53Z"/><path d="M216.28,456.55h27.31v32.9c-14.21,6.72-33.77,10.31-52.22,10.31-40.59,0-70.49-17.49-70.49-41.93s29.9-41.93,71.05-41.93c22.69,0,41.51,4.86,54.06,14L226.8,441c-9.41-6.25-20.3-9.15-33.4-9.15-25.09,0-42.26,10.54-42.26,25.95,0,15.17,17.17,25.94,41.89,25.94a71.2,71.2,0,0,0,23.25-3.47Z"/><path d="M350.58,498.37l-24.91-22.59h-27.5v22.59H268.28V417.29h55.91c34.51,0,56.1,11.23,56.1,29.42,0,12.16-9.78,21.08-26.57,25.6l29,26.06Zm-28.05-65.79H298.17v28.26h24.36c18.27,0,27.49-5.33,27.49-14.13S340.8,432.58,322.53,432.58Z"/><path d="M501.07,483.31v15.06h-100V417.29h97.62v15.06H430.77V450h60v14.6h-60v18.76Z"/><path d="M622.93,483.31v15.06h-100V417.29h97.61v15.06h-67.9V450h60v14.6h-60v18.76Z"/><path d="M671.72,432.58H630.38V417.29H743v15.29H701.61v65.79H671.72Z"/><path d="M754.77,417.29h29.89v81.08H754.77Z"/><path d="M930.29,417.29v81.08H905.75l-64.4-49.23v49.23H811.82V417.29h24.73l64.22,49.22V417.29Z"/><path d="M1045.17,456.55h27.31v32.9c-14.21,6.72-33.76,10.31-52.22,10.31-40.59,0-70.49-17.49-70.49-41.93s29.9-41.93,71.05-41.93c22.69,0,41.52,4.86,54.06,14L1055.69,441c-9.41-6.25-20.3-9.15-33.4-9.15-25.09,0-42.25,10.54-42.25,25.95,0,15.17,17.16,25.94,41.88,25.94a71.2,71.2,0,0,0,23.25-3.47Z"/><path class="cls-1" d="M945.51,367.65a362.4,362.4,0,0,1-63.21-5.83C798.11,346.92,705.36,304.26,606.61,235,484.46,149.33,373.5,94.91,276.82,73.23,200.78,56.18,136,61.05,94.36,86.94c-33.48,20.82-49.39,54-43.66,90.95,4.33,27.93,20.29,55.24,46.14,79,29.77,27.32,71.6,48.39,121,60.95A20,20,0,1,1,208,356.56C152.2,342.39,104.43,318.1,69.8,286.33,37.18,256.39,16.91,221,11.17,184,3,131.22,26.19,82.23,73.23,53,109,30.71,174.9,9.39,285.57,34.2c101.81,22.83,217.55,79.37,344,168.05,93.93,65.88,181.3,106.31,259.69,120.18,79.09,14,128.63-2.72,156.25-19.2,37.16-22.18,57.59-58.42,53.35-94.58-4.47-38.05-34.35-68.44-82-83.39a20,20,0,0,1,12-38.16c32.05,10.06,58.06,25.89,77.3,47.06,18.2,20,29.41,44.15,32.42,69.82,6.12,52-21.69,103.23-72.57,133.59C1041,352.49,1001.78,367.65,945.51,367.65Z"/><path d="M364.65,180v41H125.76V188.33l121.93-79.12c28-18.3,33-29.47,33-40,0-17.07-17.16-27-50.57-27-27.1,0-50.13,7.13-65.49,21.71L111.31,40.33C135.69,15.82,180,0,236.85,0,307.3,0,354.27,24.82,354.27,64.22c0,21.1-8.59,40.34-52.84,68.57L228.72,180Z"/><path d="M390.75,112.31C390.75,40.64,448.56,0,526.23,0c78.13,0,135.48,40.64,135.48,112.31S604.36,224.63,526.23,224.63C448.56,224.63,390.75,184,390.75,112.31Zm197.35,0c0-49.33-25.29-69.8-61.87-69.8-36.13,0-61.42,20.47-61.42,69.8s25.29,69.81,61.42,69.81C562.81,182.12,588.1,161.64,588.1,112.31Z"/><path d="M839.27,378.46v38.71H625V386.38L734.37,311.6c25.11-17.3,29.57-27.86,29.57-37.83,0-16.13-15.39-25.51-45.36-25.51-24.31,0-45,6.74-58.73,20.52l-47.8-22.28c21.88-23.17,61.57-38.13,112.6-38.13,63.19,0,105.31,23.46,105.31,60.71,0,19.94-7.7,38.12-47.39,64.81l-65.21,44.57Z"/><path d="M1074.55,378.46v38.71H860.29V386.38L969.65,311.6c25.11-17.3,29.57-27.86,29.57-37.83,0-16.13-15.39-25.51-45.37-25.51-24.3,0-45,6.74-58.73,20.52L847.33,246.5c21.87-23.17,61.56-38.13,112.6-38.13,63.18,0,105.31,23.46,105.31,60.71,0,19.94-7.7,38.12-47.39,64.81l-65.21,44.57Z"/><path d="M923,180v41H684.1V188.33L806,109.21c28-18.3,33-29.47,33-40,0-17.07-17.16-27-50.58-27-27.09,0-50.12,7.13-65.48,21.71L669.65,40.33C694,15.82,738.3,0,795.2,0c70.45,0,117.41,24.82,117.41,64.22,0,21.1-8.58,40.34-52.83,68.57L787.07,180Z"/><path d="M1070.35,3.72V220.9H997.2V44.06H934V3.72Z"/><path class="cls-1" d="M20,386.13A20,20,0,0,1,18,346.22L192.8,329l-69.93-81.49a20,20,0,0,1,30.36-26l95,110.66A20,20,0,0,1,235,365.08L22,386A19,19,0,0,1,20,386.13Z"/></g></g></svg>