<svg xmlns="http://www.w3.org/2000/svg" viewBox="0 0 892.05 417.95"><defs><style>.cls-1{fill:#e84d4d;}</style></defs><g id="レイヤー_2" data-name="レイヤー 2"><g id="レイヤー_2-2" data-name="レイヤー 2"><path class="cls-1" d="M339.6,165.82h-29v-.08a.28.28,0,0,1,0,.08H298.51s10.24-3.09,12.08-16.18c0,0,0,0,0-.08V66.2h-.06V34.27l-8.21,14.56-4.71,8.32-6.14,11.37-3,5.42-19.89,36.52c-.68,1.2,6.57,9.41,6.57,9.41H253.3L210.23,42.14V66.21h0v83.45a22,22,0,0,0,3.64,9.59,17.73,17.73,0,0,0,8.43,6.57H200.76v-.08a.37.37,0,0,0,0,.08H188.67s10.24-3.09,12.08-16.19a.22.22,0,0,1,0-.08V66.21h0v-42l0,.09c0-3.87-2.3-6.55-5-8.32a18.22,18.22,0,0,0-3.15-1.73L188,12.7l12.73-5.45.06,0,9.46-4.05h0l53.95,100.2,20.26-37.59,3-5.27,2.36-4.19,8.4-15.52L309.44,20c-1.51-2.73-4.3-4.52-6.78-5.65l-4.82-1.62h0l12.72-5.44h0L327.48,0h0l0,0V5.46h0a0,0,0,0,0,0,0l0,17.23h0V52.89h0v96.74a22,22,0,0,0,3.65,9.62A17.77,17.77,0,0,0,339.6,165.82Z"/><path class="cls-1" d="M365,119.15c5.95,28,24.49,46.08,39.12,41.6,5.89-1.81,10.73-7.15,14.12-14.77l14.65-3.48c-8.82,14.1-22.75,23.2-38.44,23.2-26.72,0-48.38-26.39-48.38-59s21.66-58.94,48.38-58.94a39.78,39.78,0,0,1,31.82,16.13c2,2.65,11.83,19.69,6.62,22.09l-64.77,29.9A5.79,5.79,0,0,0,365,119.15Zm3.39-8.09,48-30.72c1.12-.71-2.93-9-3.47-10.07A44.91,44.91,0,0,0,406,60.35c-5.22-5.61-12.74-10.05-20.59-7.63-14.55,4.48-25.3,31.18-21.55,59.74A8.84,8.84,0,0,0,368.4,111.06Z"/><path class="cls-1" d="M518.35,57.19,503.84,72.78s-1.68,4.25-9.25.72-17.53-10.33-21.47-6.56-3.95,6.56-3.95,6.56v75.66c1.85,13.08,12.08,16.17,12.08,16.17h-29v0H440.16s10.24-3.09,12.07-16.19l0-.07v-74c0-5.28-4.29-8.32-7.88-9.95l-4.83-1.62h0l12.73-5.44,16.93-7.24,0,0,0,15.75L493.26,49S501.77,64.77,518.35,57.19Z"/><path class="cls-1" d="M598.51,57.19,584,72.78s-1.68,4.25-9.25.72-17.53-10.33-21.47-6.56-3.95,6.56-3.95,6.56v75.66c1.85,13.08,12.07,16.17,12.07,16.17h-29v0H520.32s10.24-3.09,12.07-16.19V75.07c0-5.28-4.29-8.32-7.89-9.95l-4.82-1.62h0l12.72-5.44,16.93-7.24,0,0,0,15.75L573.42,49S581.93,64.77,598.51,57.19Z"/><path class="cls-1" d="M697.85,187.88c0,4.18.38,8.53-.06,12.69a21.76,21.76,0,0,1-2.52,8.59,18.44,18.44,0,0,1-1.28,2,24.37,24.37,0,0,1-12.18,9.35c-.32.13-.63.28-.95.4v-.08c-8.33,2.66-18.1,1.7-26.5-1.11a69.33,69.33,0,0,1-11.47-5c-1.2-.66-14.94-7.84-14.27-9.41l15.26-14.58c20.43,48.91,35.33,22.83,37-2.75v-42.8c-1.61,1.13-13.82,9.71-19.47,13.53-9.42,6.42-20.16,10.6-31.52,6.86-6.2-2-12.3-6.38-15.51-12.14-3.63-6.52-2.6-14.14-2.58-21.28,0-8.95,0-17.92,0-26.87V75c0-5.23-4.28-8.27-7.87-9.9l-4.83-1.63L611.8,58l16.93-7.24c.06,0,0,22.69,0,22.69s0,58,0,58c.11,9.55,10.45,43.78,46.25,12.88l4.07-3.8a7.27,7.27,0,0,0,1.81-3.68V75c0-5.24-4.3-8.26-7.88-9.89l-4.83-1.62h0L680.86,58h0l16.93-7.24h0l0,0v.09l.15-.06s0,22.69,0,22.69v67.84h0v24h-.14C697.83,172.83,697.81,180.35,697.85,187.88Zm-21.54-22.6-.08.23-.11-.23Z"/><path class="cls-1" d="M121.77,383.33c-12.38,19.78-31.92,32.54-53.91,32.54-37.48,0-67.86-37-67.86-82.72s30.38-82.66,67.86-82.66c18.89,0,36,9.41,48.26,24.6L96.63,288.18C86,265.62,70.14,252.82,55.16,257.42,33.93,264,14.22,304.25,21.45,346.11s38.68,69.34,60,62.83c8.26-2.55,15-10,19.8-20.73Z"/><path class="cls-1" d="M233,415.81H191.9s10.24-3.1,12.08-16.19V336.73c-.1-9.54-10.43-43.78-46.25-12.88l-4.06,3.8a7.93,7.93,0,0,0-2,5.67v66.3c1.84,13.09,12.08,16.19,12.08,16.19H122.65s10.24-3.09,12.07-16.19c0,0,0,0,0,0V315.88h0v-42c0-5.25-4.3-8.28-7.88-9.91L122,262.39h0L134.68,257h0l16.93-7.24h0l0,0,0,22.71h0v30.48h0v20.21l.94-1q7.29-4.94,14.55-9.88c7.78-5.29,15.66-10.91,25.43-11a32.71,32.71,0,0,1,11.4,2.11c.82.31,1.65.65,2.45,1a29.74,29.74,0,0,1,7.56,4.92c4,3.17,6.92,7.24,6.92,14.52v75.77C222.75,412.72,233,415.81,233,415.81Z"/><path class="cls-1" d="M314.88,307.68l-14.51,15.6s-1.68,4.24-9.25.71-17.52-10.33-21.47-6.56-3.94,6.56-3.94,6.56v75.66c1.84,13.08,12.07,16.17,12.07,16.17h-29v0H236.69s10.24-3.09,12.08-16.18V325.55h0c0-5.27-4.28-8.31-7.88-9.95L236.06,314h0l12.73-5.45,16.93-7.24,0,0,0,15.76,24.07-17.6S298.3,315.26,314.88,307.68Z"/><path class="cls-1" d="M316,279.94l14-12.22c9.94,8.79,19.24,6.59,24.39,4.1C341.88,279.4,329.29,284.75,316,279.94Zm41.81,135.87h-29v-.08a.62.62,0,0,0,0,.09H316.68s10.24-3.1,12.08-16.19a.22.22,0,0,1,0-.08v-74c0-5.28-4.28-8.32-7.88-9.95L316.05,314h0l12.73-5.44,16.93-7.24,0,0,0,22.71v75.66C347.54,412.72,357.77,415.81,357.77,415.81Zm.73-146.61a20.38,20.38,0,0,1-4.19,2.62Q356.41,270.55,358.5,269.2Z"/><path class="cls-1" d="M423.24,412.83c-10.42,7-32.09,5.47-46.58.61-1.28-.43-13-4.69-13-4.69V384.62c0,5.59,10.46,22.59,13.85,25,19.77,5.94,40.24,7.74,42.49-12.81,1.38-12.51-16.53-25.56-27.33-34.87-8-6.85-18.83-16.19-23.93-26.58-5.65-11.5-.53-26,9-31.79,6.06-3.68,13.07-4.34,19.85-4.11a93.41,93.41,0,0,1,33.94,7.9c0,5.49-.72,15.75-.76,21.25-.32-5.53-9.25-19-13.17-22.09a52.53,52.53,0,0,0-8.51-2.22c-6.1-1.13-13-2-19,0-5.2,1.76-8.18,6.82-8.18,12.25,0,7.18,5.69,12.6,10.63,16.88q9.35,8.12,18.26,16.72c6.84,6.6,14.68,13.28,19.77,21.37a34.34,34.34,0,0,1,5,12.3A29.06,29.06,0,0,1,423.24,412.83Z"/><path class="cls-1" d="M531.88,397.16c-4.07,2.84-13,9.07-17.54,12.17-9.42,6.4-20.16,10.58-31.54,6.84-.36-.12-.72-.23-1.07-.38l-.07,0c-5.78-2.15-11.35-6.33-14.35-11.73a21.62,21.62,0,0,1-2.51-8.59c0-.24-.05-.49-.07-.72-.33-4,0-8,0-12V315.89h0v-7.75H439.4l6.45-6.44h18.84V273.94c0-5.25-4.3-8.28-7.88-9.91L452,262.41h0L464.69,257h0l16.93-7.24h0l.05,0,0,22.72h0v28.65l.27.07H515.8l-6.46,6.45H481.67v51.89h0V382c0,.27,0,.59,0,.91.7,10.59,11.46,42,46.21,12l3-2.81Z"/><path class="cls-1" d="M714,416.05H672.86s10.24-3.1,12.08-16.19V337c-.11-9.55-10.43-43.78-46.25-12.88l-4.06,3.8a7,7,0,0,0-1.62,2.94v69.64c1.84,13.09,12.08,16.19,12.08,16.19H604s10.24-3.09,12.08-16.19V337.58C616,328,605.65,293.8,569.83,324.7l-4.06,3.81a7.89,7.89,0,0,0-2,5.66v66.3c1.84,13.09,12.08,16.19,12.08,16.19H534.75s10.24-3.1,12.08-16.19V368.31h-.05V326.36c0-5.25-4.29-8.28-7.88-9.91l-4.83-1.62h0l12.72-5.44h0l16.93-7.24h0l0,0,0,18.49h0v3.32l.94-1q7.29-4.94,14.55-9.88c7.79-5.3,15.66-10.91,25.43-11a32.48,32.48,0,0,1,11.4,2.11c.82.31,1.65.65,2.45,1a29.47,29.47,0,0,1,7.56,4.92A16.53,16.53,0,0,1,632.92,323l.64-.65,14.55-9.88c7.79-5.3,15.66-10.92,25.43-11a32.94,32.94,0,0,1,11.4,2.11c.82.32,1.65.66,2.45,1a29.44,29.44,0,0,1,7.56,4.91c4,3.17,6.92,7.24,6.92,14.53v75.77C703.71,413,714,416.05,714,416.05Z"/><path class="cls-1" d="M814.67,416.17H796.06a8.83,8.83,0,0,1-8.74-7.46L786,400.35l-1.05.81s-13.13,13.17-25.08,15.73-21.75.74-31.92-8.58-12.19-29.55-8.42-38.44l62-29.57s3-.93,3.78-5.4v-9a7.86,7.86,0,0,0-.15-1.56v-.09c0-.86-.47-7.91-3.63-13.76-3-5.64-8.66-10.15-19-6.82,0,0-11.27,5.05-22.94,22.52l-15.46-14.6s21.18-12,31.54-12.73,21.76-1.54,29.13,2.76a75.92,75.92,0,0,1,7.66,4.52c5.55,4.24,9.73,10.09,9.73,18.2V396l1.88,9.5A18.42,18.42,0,0,0,814.67,416.17Zm-29.4-24.87V343.76l-2,.06-44.92,28.74-1.93,3s-3,23.07,18.32,27.17C772.81,406.24,781.75,397.15,785.27,391.3Z"/><path class="cls-1" d="M879.35,412.83c-10.42,7-32.08,5.47-46.57.61-1.28-.43-13-4.69-13-4.69V384.62c0,5.59,10.46,22.59,13.84,25,19.77,5.94,40.25,7.74,42.5-12.81,1.37-12.51-16.53-25.56-27.34-34.87-8-6.85-18.83-16.19-23.93-26.58-5.65-11.5-.52-26,9-31.79,6-3.68,13.07-4.34,19.85-4.11a93.36,93.36,0,0,1,33.93,7.9c0,5.49-.72,15.75-.76,21.25-.32-5.53-9.25-19-13.16-22.09a52.49,52.49,0,0,0-8.52-2.22c-6.09-1.13-13-2-19,0-5.21,1.76-8.19,6.82-8.19,12.25,0,7.18,5.69,12.6,10.63,16.88q9.36,8.12,18.27,16.72c6.84,6.6,14.68,13.28,19.77,21.37a34.34,34.34,0,0,1,5,12.3A29.06,29.06,0,0,1,879.35,412.83Z"/></g></g></svg>