<svg xmlns="http://www.w3.org/2000/svg" viewBox="0 0 289.21 237.78"><defs><style>.cls-1{fill:#e84d4d;}</style></defs><g id="レイヤー_2" data-name="レイヤー 2"><g id="レイヤー_2-2" data-name="レイヤー 2"><path class="cls-1" d="M64.31,50.76a3.27,3.27,0,0,1,1.63,2.74V67.27h0V94.68A6.26,6.26,0,0,1,62,100h4v0H73a5.83,5.83,0,0,1-2.77-2.16,7.26,7.26,0,0,1-1.2-3.15V67.27h0V59.36L83.23,84.9h7.2s-2.38-2.69-2.16-3.09l6.54-12,1-1.78,2-3.74,1.55-2.73,2.7-4.78V67.27h0V94.68a6.28,6.28,0,0,1-4,5.32h4v0h9.53a5.78,5.78,0,0,1-2.77-2.16,7.26,7.26,0,0,1-1.2-3.16V62.89h0V53h0V47.32h0V45.52h0L102,47.9h0l-4.18,1.79h0l1.58.54a4.73,4.73,0,0,1,2.23,1.85L98,58.93,95.22,64l-.77,1.37-1,1.73L86.81,79.48,69.08,46.56h0L66,47.89h0l-4.18,1.79,1.51.51A5.48,5.48,0,0,1,64.31,50.76Z"/><path class="cls-1" d="M128.64,100c5.15,0,9.73-3,12.63-7.62l-4.81,1.14c-1.12,2.51-2.71,4.26-4.64,4.86C127,99.81,120.92,93.86,119,84.67a1.87,1.87,0,0,1,1-1.07l21.28-9.82c1.71-.79-1.53-6.39-2.18-7.26a13,13,0,0,0-10.45-5.3c-8.78,0-15.9,8.67-15.9,19.36S119.86,100,128.64,100Zm-3-37.12c2.58-.8,5.05.66,6.77,2.51a14.47,14.47,0,0,1,2.28,3.26c.18.34,1.51,3.07,1.14,3.31L120.07,82a3,3,0,0,1-1.49.46C117.35,73.09,120.88,64.31,125.66,62.84Z"/><path class="cls-1" d="M153.19,62.21l-5.56,2.38-4.19,1.79h0l1.58.53c1.18.54,2.59,1.54,2.59,3.27h0V94.52a6.28,6.28,0,0,1-4,5.32h4v0h9.53a6.28,6.28,0,0,1-4-5.31V69.67a3.44,3.44,0,0,1,1.29-2.16c1.3-1.24,4.57,1,7.06,2.16s3-.24,3-.24l4.77-5.12c-5.45,2.49-8.25-2.71-8.25-2.71l-7.91,5.78V62.2Z"/><path class="cls-1" d="M179.53,62.21,174,64.59l-4.18,1.79h0l1.58.53c1.18.54,2.59,1.54,2.59,3.27h0V94.52a6.28,6.28,0,0,1-4,5.32h4v0h9.53a6.28,6.28,0,0,1-4-5.31V69.67a3.44,3.44,0,0,1,1.29-2.16c1.3-1.24,4.57,1,7.06,2.16s3-.24,3-.24l4.77-5.12c-5.45,2.49-8.25-2.71-8.25-2.71l-7.91,5.78V62.2Z"/><polygon class="cls-1" points="221.19 99.83 221.22 99.9 221.25 99.83 221.19 99.83"/><path class="cls-1" d="M197.47,66.91a3.76,3.76,0,0,1,2.58,3.25v10c0,2.94,0,5.89,0,8.83,0,2.34-.35,4.84.84,7a9.23,9.23,0,0,0,5.1,4c3.73,1.22,7.26-.15,10.36-2.26,1.85-1.25,5.87-4.07,6.39-4.44V107.3c-.54,8.4-5.43,17-12.15.91l-5,4.78c-.22.52,4.3,2.88,4.69,3.09a22.16,22.16,0,0,0,3.77,1.64,14.4,14.4,0,0,0,8.7.36v0l.32-.14a8,8,0,0,0,4-3.07,7.39,7.39,0,0,0,.42-.66,7.12,7.12,0,0,0,.83-2.82,41.43,41.43,0,0,0,0-4.17c0-2.47,0-5,0-7.42h.05V92h0V69.66s0-7.46,0-7.45l-.05,0v0h0l-5.57,2.38h0l-4.18,1.79h0l1.58.54a3.77,3.77,0,0,1,2.59,3.24V90.48a2.35,2.35,0,0,1-.59,1.21l-1.34,1.25c-11.76,10.15-15.16-1.1-15.19-4.23v-19s0-7.46,0-7.45l-5.57,2.37-4.17,1.79Z"/><path class="cls-1" d="M40,152l-6.75,1.6c-1.56,3.52-3.79,6-6.51,6.81-7,2.14-17.32-6.91-19.7-20.64s4.1-27,11.07-29.14c4.93-1.51,10.14,2.69,13.63,10.1l6.4-4.3c-4-5-9.65-8.08-15.85-8.08C10,108.36,0,120.52,0,135.52S10,162.7,22.3,162.7C29.52,162.7,36,158.51,40,152Z"/><path class="cls-1" d="M41.66,112.8c1.18.54,2.59,1.53,2.59,3.26v13.79h0v27.5h0a6.3,6.3,0,0,1-4,5.32H53.8a6.3,6.3,0,0,1-4-5.32h0V135.58a2.61,2.61,0,0,1,.66-1.87l1.34-1.24C63.6,122.31,67,133.56,67,136.7v20.65h0a6.28,6.28,0,0,1-4,5.32h13.5a6.28,6.28,0,0,1-4-5.32h0V132.47a5.53,5.53,0,0,0-2.28-4.78,9.62,9.62,0,0,0-2.48-1.61,7.27,7.27,0,0,0-.81-.34,10.84,10.84,0,0,0-3.74-.7c-3.21,0-5.8,1.87-8.36,3.61l-4.78,3.25-.31.31v-6.64h0v-10h0v-7.47h0l-5.57,2.38h0l-4.18,1.79h0Z"/><path class="cls-1" d="M95.22,124.44l-7.91,5.79v-5.18h0l-5.57,2.37-4.18,1.79h0l1.58.53A3.77,3.77,0,0,1,81.74,133h0v24.35a6.28,6.28,0,0,1-4,5.32h4v0h9.53a6.28,6.28,0,0,1-4-5.32V132.51a3.43,3.43,0,0,1,1.29-2.15c1.3-1.24,4.57,1,7.06,2.15s3-.23,3-.23l4.77-5.13C98,129.64,95.22,124.44,95.22,124.44Z"/><path class="cls-1" d="M108.41,114l-4.59,4c4.38,1.58,8.52-.18,12.6-2.67C114.73,116.19,111.67,116.91,108.41,114Z"/><path class="cls-1" d="M117.56,162.68a6.28,6.28,0,0,1-4-5.31V125h0L108,127.43l-4.18,1.79h0l1.59.53c1.18.54,2.59,1.54,2.59,3.27h0v24.34a6.28,6.28,0,0,1-4,5.32h4v0h9.53Z"/><path class="cls-1" d="M116.42,115.37a6.86,6.86,0,0,0,1.38-.86Z"/><polygon class="cls-1" points="103.85 129.22 103.85 129.22 103.85 129.22 103.85 129.22"/><path class="cls-1" d="M135,141.11q-2.92-2.82-6-5.49c-1.62-1.41-3.49-3.19-3.49-5.55a4.13,4.13,0,0,1,2.69-4,12.67,12.67,0,0,1,6.24,0,16.62,16.62,0,0,1,2.8.73c1.28,1,4.22,5.44,4.32,7.25,0-1.8.24-5.17.25-7a30.5,30.5,0,0,0-11.15-2.59,11.51,11.51,0,0,0-6.52,1.35,8.4,8.4,0,0,0-3,10.44c1.68,3.42,5.25,6.49,7.86,8.74,3.56,3.06,9.44,7.35,9,11.46-.74,6.75-7.47,6.15-14,4.21-1.11-.81-4.55-6.39-4.55-8.23v7.93s3.86,1.4,4.28,1.54c4.76,1.6,11.87,2.09,15.3-.2a9.54,9.54,0,0,0,4-9.52,11.17,11.17,0,0,0-1.63-4C139.8,145.48,137.22,143.28,135,141.11Z"/><path class="cls-1" d="M151.71,129.85h0v22c0,1.3-.11,2.64,0,3.93,0,.08,0,.16,0,.24a7.27,7.27,0,0,0,.82,2.82,9.09,9.09,0,0,0,4.72,3.86h0l.36.12c3.73,1.23,7.26-.14,10.36-2.25,1.5-1,4.42-3.06,5.76-4l-.31-1.67-1,.92c-11.42,9.86-15-.45-15.19-3.93,0-.1,0-.21,0-.3v-7.41h0v-17h9.1l2.12-2.11H157.37l-.09,0v-9.41h0V108.1h0l-5.57,2.37h0l-4.18,1.78h0l1.58.54c1.18.53,2.59,1.53,2.59,3.25v9.13h-6.19l-2.12,2.11h8.31Z"/><path class="cls-1" d="M226.72,157.43V132.54a5.52,5.52,0,0,0-2.27-4.77,9.88,9.88,0,0,0-2.49-1.62l-.8-.34a10.92,10.92,0,0,0-3.75-.69c-3.21,0-5.8,1.87-8.36,3.61L204.28,132l-.21.22a5.47,5.47,0,0,0-2.25-4.22,9.53,9.53,0,0,0-2.48-1.61c-.27-.13-.54-.24-.81-.34a10.88,10.88,0,0,0-3.74-.7c-3.22,0-5.8,1.87-8.36,3.61l-4.78,3.25-.31.31V131.4h0v-6.08h0l-5.56,2.38h0l-4.18,1.79h0l1.59.53a3.8,3.8,0,0,1,2.59,3.26v13.79h0v10.55h0a6.28,6.28,0,0,1-4,5.32h13.5a6.28,6.28,0,0,1-4-5.32h0V135.85A2.6,2.6,0,0,1,182,134l1.33-1.24c11.77-10.16,15.17,1.09,15.2,4.23v20.65h0a6.28,6.28,0,0,1-4,5.32h13.5a6.28,6.28,0,0,1-4-5.32h0V134.76a2.36,2.36,0,0,1,.54-1l1.33-1.25c11.77-10.15,15.16,1.1,15.2,4.23v20.66h0a6.3,6.3,0,0,1-4,5.32h13.5a6.3,6.3,0,0,1-4-5.32Z"/><path class="cls-1" d="M245.77,163c3.93-.85,8.24-5.17,8.24-5.17l.34-.27.45,2.75a2.89,2.89,0,0,0,2.87,2.45h6.12a6,6,0,0,1-3.49-3.5l-.61-3.12V132.63a7.35,7.35,0,0,0-3.2-6,23.47,23.47,0,0,0-2.52-1.48c-2.42-1.42-6.17-1.16-9.57-.91S234,128.44,234,128.44l5.07,4.8c3.84-5.74,7.54-7.4,7.54-7.4,3.39-1.1,5.23.39,6.23,2.24a11.61,11.61,0,0,1,1.19,4.52v0a2.1,2.1,0,0,1,.05.51v3a2.15,2.15,0,0,1-1.24,1.77l-20.37,9.72c-1.24,2.92-.57,9.56,2.77,12.63A10.76,10.76,0,0,0,245.77,163Zm-7.69-13.57.64-1L253.48,139l.64,0v15.62c-1.15,1.92-4.09,4.91-10,3.76C237.11,157,238.08,149.47,238.08,149.47Z"/><path class="cls-1" d="M289.07,152.18a11.17,11.17,0,0,0-1.63-4c-1.67-2.66-4.25-4.86-6.5-7q-2.93-2.82-6-5.49c-1.62-1.41-3.49-3.19-3.49-5.55a4.13,4.13,0,0,1,2.69-4,12.67,12.67,0,0,1,6.24,0,16.62,16.62,0,0,1,2.8.73c1.28,1,4.22,5.44,4.32,7.25,0-1.8.24-5.17.25-7a30.5,30.5,0,0,0-11.15-2.59,11.51,11.51,0,0,0-6.52,1.35,8.39,8.39,0,0,0-2.95,10.44c1.68,3.42,5.25,6.49,7.86,8.74,3.55,3.06,9.44,7.35,9,11.46-.74,6.75-7.47,6.15-14,4.21-1.11-.81-4.55-6.39-4.55-8.23v7.93s3.85,1.4,4.27,1.54c4.77,1.6,11.88,2.09,15.31-.2A9.56,9.56,0,0,0,289.07,152.18Z"/><path class="cls-1" d="M144.57,42.91a3.24,3.24,0,0,1,2.22,2.79h0v2.2h4.75V45.26a2.93,2.93,0,0,1,1.11-1.84c1.1-1.06,3.9.85,6,1.84s2.6-.2,2.6-.2l4.08-4.38c-4.66,2.13-7-2.31-7-2.31l-6.76,4.94V38.88h0l-4.75,2-3.58,1.53h0Z"/><path class="cls-1" d="M191.58,45.68V47.9h4.76V45.26s0-6.38,0-6.37l-4.75,2L188,42.45l1.36.45A3.24,3.24,0,0,1,191.58,45.68Z"/><path class="cls-1" d="M208.75,42.9A3.25,3.25,0,0,1,211,45.68V47.9h4.81V45.26s0-6.38,0-6.37h-.05v0h0l-4.75,2h0l-3.57,1.52h0Z"/><path class="cls-1" d="M180.8,38.37l-6.75,4.94V38.88h0l-4.75,2-3.57,1.53h0l1.36.46a3.24,3.24,0,0,1,2.21,2.79h0v2.2H174V45.26a2.93,2.93,0,0,1,1.11-1.84c1.11-1.06,3.9.85,6,1.84s2.59-.2,2.59-.2l4.08-4.38C183.19,42.81,180.8,38.37,180.8,38.37Z"/><path class="cls-1" d="M75.61,29.11A2.8,2.8,0,0,1,77,31.44V43.21h0V47.9h2.65V43.21h0V36.46L86,47.9h5.71l-12-22.38h0L77,26.66h0l-3.57,1.53,1.29.44A4.85,4.85,0,0,1,75.61,29.11Z"/><path class="cls-1" d="M135.6,47.9h6.17c0-1.6-1.83-4.74-2.27-5.33A11.19,11.19,0,0,0,130.57,38c-5.55,0-10.31,4.06-12.42,9.86h4.16c1-4.36,3.12-7.67,5.71-8.47,2.21-.68,4.32.56,5.78,2.14a12.44,12.44,0,0,1,1.95,2.78c.15.3,1.29,2.63,1,2.83Z"/><path class="cls-1" d="M144.58,23.16a2.48,2.48,0,0,1,1.7,2.14h0V27h3.64V25a2.24,2.24,0,0,1,.85-1.41c.85-.81,3,.65,4.63,1.41s2-.15,2-.15l3.12-3.36a4.1,4.1,0,0,1-5.4-1.77l-5.18,3.78V20.07h0l-3.64,1.55-2.74,1.18h0Z"/><path class="cls-1" d="M180.63,25.29V27h3.65V25s0-4.89,0-4.89l-3.65,1.56L177.9,22.8l1,.35A2.48,2.48,0,0,1,180.63,25.29Z"/><path class="cls-1" d="M193.8,23.15a2.49,2.49,0,0,1,1.7,2.13V27h3.69V25s0-4.89,0-4.89l0,0v0h0l-3.64,1.56h0l-2.74,1.17h0Z"/><path class="cls-1" d="M172.37,19.68l-5.19,3.78V20.07h0l-3.64,1.55-2.74,1.18h0l1,.35a2.48,2.48,0,0,1,1.7,2.14h0V27h3.64V25a2.24,2.24,0,0,1,.85-1.41c.85-.81,3,.65,4.62,1.41s2-.15,2-.15l3.12-3.36A4.1,4.1,0,0,1,172.37,19.68Z"/><path class="cls-1" d="M91.69,12.58a2.13,2.13,0,0,1,1.07,1.79v9h0V27h2v-3.6h0V18.21L99.67,27h4.39L94.81,9.82h0l-2,.87h0L90,11.87l1,.33A3.87,3.87,0,0,1,91.69,12.58Z"/><path class="cls-1" d="M114.71,12.22a3.12,3.12,0,0,1,1.46,1.22l-2.42,4.48-1.81,3.35-.51.9-.64,1.13L109.32,26l-1.48.64h0l-3.57,1.52h0l1.36.45a4,4,0,0,1,1.9,1.59l-3.16,5.84L102,40.44l-.66,1.18-.84,1.48-2.59,4.8h2.37l1.37-2.51.83-1.53,1.72-3.19,1.32-2.33,2.31-4.09v9h0V47.9h4.76V39.47h0V31h0V26.17h0V24.63h0l-.9.39.61-1.13,1.33-2.45,1-1.79,1.77-3.13v6.87h0V27h3.65V20.52h0V14h0V11.67l.34-.61,1-1.84.76-1.34,1.32-2.35v5.15h0v2.7h2.73V8.53h0V3.66h0V.88h0V0h0l-2.74,1.17h0l-2,.88h0l.78.26a2.35,2.35,0,0,1,1.1.91l-1.82,3.37-1.36,2.5-.06.11V9.14h0l-3.64,1.56h0l-2.74,1.17h0Z"/><path class="cls-1" d="M127.5,27c.75-3.35,2.4-5.89,4.39-6.5,1.69-.52,3.31.43,4.43,1.64a9.59,9.59,0,0,1,1.5,2.14c.11.22,1,2,.74,2.17l-.86.55h4.73c0-1.23-1.4-3.64-1.74-4.09a8.57,8.57,0,0,0-6.85-3.48c-4.26,0-7.91,3.12-9.53,7.57Z"/><path class="cls-1" d="M144.59,10.51a1.85,1.85,0,0,1,1.27,1.6h0v1.27h2.73V11.86a1.68,1.68,0,0,1,.64-1.06c.63-.61,2.24.49,3.46,1.06s1.5-.12,1.5-.12l2.34-2.51a3.08,3.08,0,0,1-4.05-1.33l-3.89,2.84V8.19h0l-2.73,1.17-2.05.88h0Z"/><path class="cls-1" d="M171.61,12.1v1.28h2.73V11.86s0-3.67,0-3.66l-2.73,1.16-2.05.88.78.26A1.9,1.9,0,0,1,171.61,12.1Z"/><path class="cls-1" d="M181.48,10.5a1.87,1.87,0,0,1,1.27,1.6v1.28h2.76V11.86s0-3.67,0-3.66h0v0h0l-2.73,1.17h0l-2.05.88h0Z"/><path class="cls-1" d="M157.52,10.51a1.85,1.85,0,0,1,1.27,1.6h0v1.27h2.74V11.86a1.69,1.69,0,0,1,.63-1.06c.64-.61,2.24.49,3.47,1.06s1.49-.12,1.49-.12l2.34-2.51a3.08,3.08,0,0,1-4.05-1.33l-3.88,2.84V8.19h0l-2.74,1.17-2,.88h0Z"/><path class="cls-1" d="M105,2.58a1.59,1.59,0,0,1,.8,1.34h0v6.77h0v2.7h1.52v-2.7h0V6.8l3.64,6.58h3.28L107.29.51h0l-1.53.66h0l-2,.88.74.25A2.89,2.89,0,0,1,105,2.58Z"/><path class="cls-1" d="M135.07,8.51a3.33,3.33,0,0,1,3.33,1.23,7.42,7.42,0,0,1,1.12,1.6c.08.17.74,1.51.56,1.62l-.65.42H143a8.13,8.13,0,0,0-1.31-3.07,6.43,6.43,0,0,0-5.13-2.6c-3.19,0-5.93,2.33-7.14,5.67h2.39C132.34,10.87,133.58,9,135.07,8.51Z"/><path class="cls-1" d="M93.35,189.73h3.56A5.62,5.62,0,0,1,93.36,185V173h-5V185a5.62,5.62,0,0,1-3.55,4.76h3.55v0Z"/><path class="cls-1" d="M116.89,189.72h3.55a5.64,5.64,0,0,1-3.55-4.76V173h-5V185a5.63,5.63,0,0,1-3.55,4.77h3.55v0Z"/><path class="cls-1" d="M80.18,185h0V173h-5V185h0a5.63,5.63,0,0,1-3.56,4.77H83.73A5.63,5.63,0,0,1,80.18,185Z"/><path class="cls-1" d="M126.25,187.91c-1-.71-4.07-5.71-4.07-7.36v7.1L126,189c4.27,1.43,10.64,1.87,13.71-.18a8.57,8.57,0,0,0,3.61-8.53,10.41,10.41,0,0,0-1.46-3.62,21.28,21.28,0,0,0-3.08-3.66h-9.05l1,.84c3.18,2.74,8.45,6.58,8,10.26C138.09,190.19,132.07,189.66,126.25,187.91Z"/><path class="cls-1" d="M54.82,173V185h0a5.63,5.63,0,0,1-3.55,4.77H63.36A5.63,5.63,0,0,1,59.8,185h0V173Z"/><path class="cls-1" d="M51,180.17l-6,1.44c-1.4,3.14-3.39,5.35-5.82,6.1-5.59,1.71-13.54-4.57-16.71-14.67H16.19c2.63,9.7,10.12,16.7,19,16.7C41.62,189.74,47.37,186,51,180.17Z"/><path class="cls-1" d="M218.19,185h0V173h-5v12h0a5.63,5.63,0,0,1-3.55,4.77h12.09A5.63,5.63,0,0,1,218.19,185Z"/><path class="cls-1" d="M242.94,185.18l.39,2.46a2.6,2.6,0,0,0,2.58,2.19h5.47a5.39,5.39,0,0,1-3.12-3.13l-.55-2.79V173h-5v9.48c-1,1.72-3.67,4.39-9,3.37-6.26-1.21-5.39-8-5.39-8l.57-.89,6.19-4H230l-6.66,3.17c-1.11,2.62-.51,8.57,2.48,11.31a9.64,9.64,0,0,0,9.39,2.53c3.52-.76,7.38-4.63,7.38-4.63Z"/><path class="cls-1" d="M272.56,176.7a20.78,20.78,0,0,0-3.07-3.66h-9.05l1,.84c3.18,2.74,8.45,6.58,8,10.26-.66,6.05-6.68,5.52-12.5,3.77-1-.71-4.08-5.71-4.08-7.36v7.1l3.83,1.38c4.26,1.43,10.64,1.87,13.7-.18a8.53,8.53,0,0,0,3.61-8.53A10,10,0,0,0,272.56,176.7Z"/><path class="cls-1" d="M177.56,185.21h0V173h-5v2.71h0v9.46h0A5.64,5.64,0,0,1,169,190h12.09A5.63,5.63,0,0,1,177.56,185.21Z"/><path class="cls-1" d="M197.93,185.22h0V173h-5v12.17h0A5.62,5.62,0,0,1,189.4,190h12.09A5.64,5.64,0,0,1,197.93,185.22Z"/><path class="cls-1" d="M170.52,182.74l-.88.83c-10.22,8.82-13.39-.41-13.6-3.52,0-.1,0-.19,0-.27v-6.63h0V173h-5v7c0,1.17-.1,2.36,0,3.52a1.64,1.64,0,0,1,0,.22,6.37,6.37,0,0,0,.74,2.52,8.15,8.15,0,0,0,4.22,3.46h0a2,2,0,0,0,.32.11c3.35,1.1,6.51-.13,9.28-2,1.35-.91,4-2.74,5.16-3.58Z"/><path class="cls-1" d="M102.26,214.85a5,5,0,0,1-3.16-4.23V200H94.68v10.61a5,5,0,0,1-3.16,4.23h3.16v0h7.58Z"/><path class="cls-1" d="M120,214.85h3.16a5,5,0,0,1-3.16-4.23V200H115.6v10.6a5,5,0,0,1-3.16,4.24h3.16v0Z"/><path class="cls-1" d="M87.39,210.61h0V200H83v10.6h0a5,5,0,0,1-3.16,4.24H90.55A5,5,0,0,1,87.39,210.61Z"/><path class="cls-1" d="M140.31,214.07a7.6,7.6,0,0,0,3.21-7.58,9,9,0,0,0-1.29-3.22,19.18,19.18,0,0,0-2.74-3.26h-8l.87.75c2.82,2.44,7.51,5.85,7.15,9.12-.59,5.38-5.95,4.91-11.12,3.36-.88-.64-3.62-5.09-3.62-6.55V213l3.4,1.23C131.92,215.5,137.59,215.89,140.31,214.07Z"/><path class="cls-1" d="M69.27,210.61h0V200H64.84v10.6h0a5,5,0,0,1-3.16,4.24H72.43A5,5,0,0,1,69.27,210.61Z"/><path class="cls-1" d="M61.45,206.35l-5.37,1.28c-1.25,2.8-3,4.76-5.18,5.42-5,1.52-12-4.06-14.85-13H30.5c2.34,8.63,9,14.85,16.85,14.85C53.1,214.86,58.21,211.53,61.45,206.35Z"/><path class="cls-1" d="M205.67,200v10.66h0a5,5,0,0,1-3.15,4.23h10.74a5,5,0,0,1-3.15-4.23h0V200Z"/><path class="cls-1" d="M225.26,215.13c3.13-.67,6.56-4.11,6.56-4.11l.27-.22.36,2.19a2.29,2.29,0,0,0,2.28,1.95h4.87a4.8,4.8,0,0,1-2.77-2.78l-.49-2.48V200h-4.43v8.43c-.92,1.53-3.26,3.9-8,3-5.56-1.07-4.79-7.1-4.79-7.1l.51-.8,5.5-3.52h-4.53l-5.91,2.82c-1,2.33-.46,7.62,2.2,10.06A8.57,8.57,0,0,0,225.26,215.13Z"/><path class="cls-1" d="M258.43,203.27A18.67,18.67,0,0,0,255.7,200h-8l.87.75c2.83,2.44,7.51,5.85,7.16,9.12-.59,5.38-6,4.91-11.12,3.36-.89-.64-3.62-5.09-3.62-6.55V213s3.06,1.12,3.4,1.23c3.79,1.27,9.46,1.66,12.18-.16a7.6,7.6,0,0,0,3.21-7.58A9,9,0,0,0,258.43,203.27Z"/><path class="cls-1" d="M174,210.84h0V200h-4.45v2.42h0v8.4h0a5,5,0,0,1-3.16,4.23h10.74A5,5,0,0,1,174,210.84Z"/><path class="cls-1" d="M187.65,200v10.82h0a5,5,0,0,1-3.16,4.23h10.75a5,5,0,0,1-3.16-4.23h0V200Z"/><path class="cls-1" d="M150.41,209.52a5.67,5.67,0,0,0,.66,2.25,7.2,7.2,0,0,0,3.75,3.07h0l.28.09c3,1,5.79-.11,8.25-1.78,1.2-.82,3.52-2.45,4.59-3.19l-.25-1.33-.78.73c-9.09,7.85-11.91-.36-12.09-3.13a1.93,1.93,0,0,1,0-.24v-5.89h0V200h-4.43v6.19c0,1-.09,2.1,0,3.13C150.4,209.4,150.4,209.46,150.41,209.52Z"/><path class="cls-1" d="M107.34,233.83v-8.77h-3.66v8.77a4.12,4.12,0,0,1-2.61,3.49H110A4.12,4.12,0,0,1,107.34,233.83Z"/><path class="cls-1" d="M124.63,233.83v-8.77H121v8.75h0a4.14,4.14,0,0,1-2.62,3.5H121v0h6.26A4.15,4.15,0,0,1,124.63,233.83Z"/><path class="cls-1" d="M97.66,233.82h0v-8.76H94v8.76h0a4.14,4.14,0,0,1-2.61,3.5h8.88A4.12,4.12,0,0,1,97.66,233.82Z"/><path class="cls-1" d="M143,227.75a15.44,15.44,0,0,0-2.26-2.69h-6.64l.72.62c2.33,2,6.2,4.84,5.91,7.54-.49,4.44-4.92,4.05-9.19,2.77-.73-.53-3-4.2-3-5.41v5.22s2.53.92,2.81,1c3.13,1.05,7.81,1.37,10.06-.13a6.3,6.3,0,0,0,2.66-6.27A7.54,7.54,0,0,0,143,227.75Z"/><path class="cls-1" d="M82.69,233.82h0v-8.76H79v8.76h0a4.14,4.14,0,0,1-2.61,3.5H85.3A4.14,4.14,0,0,1,82.69,233.82Z"/><path class="cls-1" d="M67.51,235.84c-4.1,1.25-9.94-3.36-12.27-10.78H50.66c1.93,7.13,7.43,12.27,13.92,12.27,4.75,0,9-2.75,11.65-7l-4.44,1.06C70.76,233.67,69.3,235.29,67.51,235.84Z"/><path class="cls-1" d="M199,233.87h0v-8.81h-3.66v8.81h0a4.14,4.14,0,0,1-2.61,3.5h8.88A4.12,4.12,0,0,1,199,233.87Z"/><path class="cls-1" d="M221.12,235.1l-.4-2v-8h-3.66v7c-.76,1.27-2.69,3.23-6.59,2.48-4.6-.89-4-5.87-4-5.87l.42-.66,4.55-2.91h-3.74l-4.89,2.33c-.82,1.92-.38,6.3,1.82,8.31a7.07,7.07,0,0,0,6.89,1.86c2.59-.56,5.43-3.41,5.43-3.41l.22-.17.29,1.81a1.91,1.91,0,0,0,1.89,1.61h4A4,4,0,0,1,221.12,235.1Z"/><path class="cls-1" d="M239,227.75a15.44,15.44,0,0,0-2.26-2.69h-6.64c.24.22.49.43.72.62,2.33,2,6.2,4.84,5.9,7.54-.48,4.44-4.91,4.05-9.18,2.77-.73-.53-3-4.2-3-5.41v5.22s2.53.92,2.81,1c3.13,1.05,7.81,1.37,10.06-.13a6.28,6.28,0,0,0,2.65-6.27A7.52,7.52,0,0,0,239,227.75Z"/><path class="cls-1" d="M169.19,234h0v-8.94h-3.67v2h0V234h0a4.12,4.12,0,0,1-2.61,3.49h8.88A4.12,4.12,0,0,1,169.19,234Z"/><path class="cls-1" d="M184.15,234h0v-8.94h-3.66V234h0a4.12,4.12,0,0,1-2.61,3.5h8.88A4.14,4.14,0,0,1,184.15,234Z"/><path class="cls-1" d="M164,232.19l-.65.61c-7.51,6.48-9.84-.3-10-2.59v-5.07h0v-.08h-3.66v5.12c0,.85-.07,1.73,0,2.59,0,0,0,.1,0,.15a4.63,4.63,0,0,0,.54,1.86,6,6,0,0,0,3.1,2.53h0l.24.08c2.46.81,4.78-.1,6.81-1.48,1-.67,2.91-2,3.79-2.63Z"/></g></g></svg>