<svg xmlns="http://www.w3.org/2000/svg" viewBox="0 0 317.09 88.04"><defs><style>.cls-1{fill:#212121;}</style></defs><g id="レイヤー_2" data-name="レイヤー 2"><g id="レイヤー_2-2" data-name="レイヤー 2"><path class="cls-1" d="M44,114.11,21.33,130.54,20.15,127H69.92v12.7H7.28V127q11-8.3,19.55-14T41.31,102.6a40,40,0,0,0,9.06-9.31,19.49,19.49,0,0,0,3.13-11,18.18,18.18,0,0,0-1.86-8.38A13.6,13.6,0,0,0,46,68.15,20.32,20.32,0,0,0,36.06,66,18.87,18.87,0,0,0,23.2,70.77a15.62,15.62,0,0,0-5.42,12.36H5.93A24.14,24.14,0,0,1,9.06,68,29,29,0,0,1,20.23,57.31a32.22,32.22,0,0,1,15.83-4,35.47,35.47,0,0,1,13.21,2.29A29,29,0,0,1,59,61.8a25.63,25.63,0,0,1,6,9,28.37,28.37,0,0,1,2,10.67,26.07,26.07,0,0,1-1.61,9.31,33,33,0,0,1-4.57,8.13,53.41,53.41,0,0,1-7.2,7.61A122.45,122.45,0,0,1,44,114.11Z" transform="translate(-5.78 -53.33)"/><path class="cls-1" d="M126.64,141.37a41.3,41.3,0,0,1-20.32-5.25A40.27,40.27,0,0,1,91,121q-5.84-9.9-5.84-23.45T91,74.07a41.61,41.61,0,0,1,15.32-15.32,40.33,40.33,0,0,1,20.32-5.42,39.84,39.84,0,0,1,20.23,5.42A41.13,41.13,0,0,1,162,74.07q5.75,9.9,5.75,23.45T162,121a39.81,39.81,0,0,1-15.16,15.15A40.8,40.8,0,0,1,126.64,141.37Zm0-13a26.38,26.38,0,0,0,13.21-3.55,27.92,27.92,0,0,0,10.32-10.5q4.07-6.93,4.07-16.76t-4-16.76a28.5,28.5,0,0,0-10.33-10.67,25.9,25.9,0,0,0-13.29-3.72A26.72,26.72,0,0,0,113.27,70a28.14,28.14,0,0,0-10.5,10.58q-4.06,6.94-4.06,16.93,0,9.83,4.06,16.76a27.59,27.59,0,0,0,23.87,14.05Z" transform="translate(-5.78 -53.33)"/><path class="cls-1" d="M220.27,114.11l-22.69,16.43L196.4,127h49.77v12.7H183.53V127q11-8.3,19.55-14t14.48-10.33a40,40,0,0,0,9.06-9.31,19.57,19.57,0,0,0,3.13-11,18.18,18.18,0,0,0-1.86-8.38,13.71,13.71,0,0,0-5.67-5.75A20.34,20.34,0,0,0,212.31,66a18.89,18.89,0,0,0-12.87,4.74A15.64,15.64,0,0,0,194,83.13H182.17A24.14,24.14,0,0,1,185.31,68a29,29,0,0,1,11.17-10.67,32.19,32.19,0,0,1,15.83-4,35.47,35.47,0,0,1,13.21,2.29,29,29,0,0,1,9.73,6.18,25.76,25.76,0,0,1,6,9,28.36,28.36,0,0,1,2,10.67,26.07,26.07,0,0,1-1.6,9.31,32.69,32.69,0,0,1-4.58,8.13,52.75,52.75,0,0,1-7.19,7.61A122.45,122.45,0,0,1,220.27,114.11Z" transform="translate(-5.78 -53.33)"/><path class="cls-1" d="M297,114.11l-22.68,16.43L273.09,127h49.78v12.7H260.22V127q11-8.3,19.56-14t14.47-10.33a40,40,0,0,0,9.06-9.31,19.49,19.49,0,0,0,3.13-11,18.18,18.18,0,0,0-1.86-8.38,13.6,13.6,0,0,0-5.67-5.75A20.32,20.32,0,0,0,289,66a18.89,18.89,0,0,0-12.86,4.74,15.62,15.62,0,0,0-5.42,12.36H258.87A24.14,24.14,0,0,1,262,68a29.06,29.06,0,0,1,11.17-10.67,32.22,32.22,0,0,1,15.83-4,35.47,35.47,0,0,1,13.21,2.29A29,29,0,0,1,312,61.8a25.9,25.9,0,0,1,6,9,28.55,28.55,0,0,1,2,10.67,26.07,26.07,0,0,1-1.61,9.31,32.65,32.65,0,0,1-4.57,8.13,53.41,53.41,0,0,1-7.2,7.61A122.45,122.45,0,0,1,297,114.11Z" transform="translate(-5.78 -53.33)"/></g></g></svg>