<svg xmlns="http://www.w3.org/2000/svg" viewBox="0 0 219.93 292.69"><defs><style>.cls-1{fill:#fff;}.cls-2{fill:#2d2d2d;}</style></defs><g id="レイヤー_2" data-name="レイヤー 2"><g id="レイヤー_2-2" data-name="レイヤー 2"><path d="M158.44,123.38l-2.2,11.7c6.53-.93,17.52.78,17.52-7.46C173.76,124.52,166.1,124,158.44,123.38Z"/><path d="M162.69,100.76l-2.37,12.61c7.46-.71,14.52-1.79,14.52-6C174.84,103.4,169.06,101.88,162.69,100.76Z"/><path d="M167.44,75.51l-2.38,12.66c4.83-.9,8.7-2.17,8.7-4.88C173.76,79.12,171.33,77.12,167.44,75.51Z"/><path d="M190.51,140.88a5.6,5.6,0,0,0,2.77-5.19,2.29,2.29,0,0,0-1.43-1.94Z"/><path d="M213.26,19.9l-4,21.43C224.09,38.59,221.54,27.26,213.26,19.9Z"/><path d="M187.16,248.06c-7.65-13.4,5.35-16.41,5.35-28.87,0-12-5.42-19.44-12.15-24.33L171,244.6a24,24,0,0,1-3.37-4.6C160,226.6,173,223.59,173,211.13c0-19.47-14.26-26.93-25.23-31l-1.37,7.29c-12.56-16.13-40.08-14.4-29.32-20.84,5.37-3.22,32.31,19.38,43.82,15.12,7.92,4,16,7.29,21,5.25l-.6,3.22c10.6,5.32,21.24,9,24.28.13,3.37-9.82-8.2-20.48-18.83-29.11l-2,10.53c-5.68-11.09-22.76-22-29.94-28.82l-1.93,10.31c-10.27-9.24-22.74-17.05-22-20.65,1.34-6.5,22.18,1,22.18-10.31,0-6.19-30.5-2-30.6-9.28s31.68-2.06,31.68-11-28.64-5.52-28.62-12.76S153,85.16,153,78s-7.21-7.94-16.8-11.34c-14.56-5.16-21.45-40.21,22.16-38.15,9.74.46,15.62-1.24,18.66-4l-1.74,9.28c1.23,0,2.49,0,3.81.08C214.94,35.5,198.6,8,180.6,5.52l-1.7,9.07C175.26,5,159.65-4.88,148.43,2.69,128.86,15.87,121.71,28,110,28.8,98.21,28,91.06,15.87,71.5,2.69c-10.16-6.85-23.91.56-29.12,9.17L41.3,6.14c-18,2.44-34.34,30,1.49,28.28,1.32-.06,2.59-.09,3.82-.09L45,26c3.37,1.85,8.7,2.88,16.52,2.51,43.6-2.06,36.72,33,22.16,38.15C74.12,70,66.91,70.73,66.91,78s27.51,4.22,27.53,11.34-28.61,3.87-28.61,12.76,31.75,3.74,31.67,11-30.59,3.09-30.59,9.28c0,11.34,20.83,3.81,22.18,10.31.71,3.41-10.48,10.62-20.39,19.24l-1.56-8.28c-7.89,7.52-27.79,19.95-31.29,32.16l-2.61-13.88c-10.63,8.63-22.2,19.29-18.83,29.11,3,8.86,13.68,5.2,24.28-.12l-.89-4.75c4.56,4.68,14.12.92,23.46-3.86,12.43,1.17,36.55-18.63,41.6-15.6,10.34,6.19-14.69,4.83-27.8,19l-.92-4.89c-11,4-25.23,11.5-25.23,31,0,12.45,13,15.46,5.36,28.87a24,24,0,0,1-5,6.22l-9.66-51.37c-6.73,4.89-12.16,12.33-12.16,24.34,0,12.45,13,15.46,5.36,28.87s-20.9,10.64-27.54,21.65C-4.83,287,22.34,303,38.46,284.21a21.66,21.66,0,0,0,19.39-5.86c6.9,1.21,15-1,21.3-8.64C94,251.55,101,242,110,242s15.93,9.55,30.82,27.71c7,8.48,16.11,10.25,23.42,8.17a21.75,21.75,0,0,0,17.51,6c16.15,18.37,43,2.43,33-14.16C208.06,258.7,194.81,261.46,187.16,248.06ZM106.1,96.5c0-25-9.58-52.58,4.41-52.58s4.41,27.53,4.41,52.58,13.08,59.8-4.41,59.8S106.1,121.56,106.1,96.5Zm4.6,135.64c-8.62,0-5.62-12.92-5.62-26.87s-4.28-29.38,5.43-29.38,4.85,15.43,4.85,29.38S119.32,232.14,110.7,232.14Z"/><path d="M65.66,135.69,63.46,124c-7.65.65-15.31,1.15-15.31,4.25C48.15,136.47,59.13,134.76,65.66,135.69Z"/><path d="M47.07,108c0,4.19,7.06,5.26,14.51,6l-2.37-12.61C52.85,102.5,47.07,104,47.07,108Z"/><path d="M54.46,76.13c-3.89,1.6-6.31,3.6-6.31,7.78,0,2.7,3.86,4,8.69,4.88Z"/><path d="M28.08,134.36a2.3,2.3,0,0,0-1.43,1.94,5.57,5.57,0,0,0,2.77,5.19Z"/><path d="M6.67,20.52c-8.28,7.35-10.83,18.68,4,21.42Z"/><path class="cls-1" d="M96.91,198.2c-2.74,0-3.86-3.22-4.23-4.27a25.24,25.24,0,0,0-8.55-12.67c-2.14-1.89-4.16-3.68-5.4-6.6-3.25-8.09,6.16-13.75,9.12-15.3a3.35,3.35,0,0,0,1.13-.89c-4.61-2.49-3.27-5.8-2.07-8.73a20,20,0,0,1,.91-1.9c1.11-2.06,2-3.69-.46-10.22-2.63-7.09.55-11.44,2.66-14.31.86-1.17,1.67-2.28,1.67-3,0-.41-.14-.57-1.51-1.38-2.14-1.25-5.36-3.14-5.56-9.41a20.62,20.62,0,0,1,2.65-11c.91-1.81,1.62-3.25,1.55-5.13,0-1.43-1.51-3.63-2.92-5.75-2.73-4.12-6.13-9.24-2.75-14a6.34,6.34,0,0,1,5.14-2.53c3.65,0,8.62,2.91,11.6,11.07,1.33,3.7,4.85,6.71,11.4,9.79a11.58,11.58,0,0,0,4.7,1.25,4,4,0,0,0,3.1-1.28c1.48-1.63,2.15-4.91,1.77-8.78a10.35,10.35,0,0,1,2.8-8.07,11.92,11.92,0,0,1,8.47-4.2,6.36,6.36,0,0,1,5.66,3.1c3,5.44.1,10.5-2.19,14.57-1.17,2.08-2.28,4-2.34,5.52a11.56,11.56,0,0,0,1.13,5.08,23.2,23.2,0,0,1,1.89,10.52c-.19,6.17-1.09,9.41-8.4,12.48-1.15.54-3.12.77-6.23,1.08-2.9.29-10.6,1.06-10.52,2.85,0,.86.05,1.25,1.64,1.25a28.49,28.49,0,0,0,5.38-.87,35.18,35.18,0,0,1,7.31-1.1,7.94,7.94,0,0,1,6,2.11c1.55,1.56,2.29,3.84,2.26,7,0,6.31-3.14,9.64-9,9.64a38.46,38.46,0,0,1-7.13-.94,28.26,28.26,0,0,0-4.74-.7,2.49,2.49,0,0,0-.94.12s0,.12,0,.28c0,1,0,2.09,5.72,2.09l2.13,0,2.31,0c4.88,0,9.71.56,12,4.64s1,5.77-1.35,8l-.73.72a.66.66,0,0,0-.15.17,2.08,2.08,0,0,0,1.06.71c1.42.46,7.67,3.3,9.87,8a7.94,7.94,0,0,1,.21,6.49c-1.26,3-3.38,4.89-5.63,6.94-3.15,2.87-6.71,6.11-9,13.19-.38,1.11-1.52,4.33-4.26,4.33h0c-3.16,0-5.17-4.09-8.44-11.31-1.41-3.13-3.74-8.29-5-9.17-1.31.89-3.65,6.08-5.08,9.23C102.09,194.08,100.07,198.2,96.91,198.2Zm24.29-35.66c-.74,0-1.13.17-1.24.31s-.25.76.08,2a21.63,21.63,0,0,0,1.63,4.5,5.65,5.65,0,0,0,.69-.83c1.54-2.18,1.64-3.9,1.22-4.78a2.22,2.22,0,0,0-2-1.13Zm-20.85,0-.42,0a2.22,2.22,0,0,0-2,1.13c-.42.88-.32,2.6,1.22,4.79a6.85,6.85,0,0,0,.69.82,21.84,21.84,0,0,0,1.63-4.5c.33-1.19.21-1.78.08-1.94S101.09,162.54,100.35,162.54Zm2.94-52.37a84,84,0,0,0,8.84.64c4.67,0,6.06-.94,6.14-1.49.31-1.88-2.55-3.29-6.94-5.22-1.53-.67-3.12-1.37-4.59-2.17a1.23,1.23,0,0,0-.56-.17c-.51,0-1.19.55-1.83,1.46a13.59,13.59,0,0,0-2.22,6.82Z"/><path class="cls-2" d="M132.13,72.85a4.37,4.37,0,0,1,4,2.14c3.8,7-4.63,13.75-4.82,19-.21,5.42,3.33,7,3,15.59-.19,5.75-.84,8.06-7.19,10.72-3.09,1.45-18.21.49-18,5.86.09,2.41,1.53,3.16,3.64,3.16,3.42,0,8.61-2,12.69-2,3.55,0,6.25,1.49,6.21,7.07,0,6.1-3.15,7.65-7,7.65s-8.84-1.64-11.87-1.64c-1.78,0-3,.57-3,2.4,0,3.63,3.47,4.09,7.72,4.09,1.43,0,2.94-.05,4.44-.05,4.27,0,8.45.41,10.2,3.6,1.87,3.41.8,3.83-1.75,6.38-1.83,1.83,0,3.66,1.72,4.21s11.49,5.18,8.83,11.82c-2.69,6.33-10.6,7.67-14.67,20.27-.73,2.08-1.52,2.94-2.36,2.94-4.09,0-9.23-20.53-13.45-20.53h-.07c-4.23,0-9.41,20.66-13.5,20.66-.83,0-1.62-.86-2.34-2.93-4-12.59-11.32-13.09-14-19.39-2.66-6.62,5.93-11.56,8.21-12.75s3.21-3.38,1.38-4.3c-3.23-1.61-2.72-3.1-1.4-6.34s3.88-4.47.47-13.57c-3.46-9.33,4.5-12.66,4.45-16.64s-6.78-2.13-7.06-10.82,4.4-10.78,4.2-16.19c-.18-5.15-10.25-12.59-6-18.51a4.3,4.3,0,0,1,3.52-1.69c3.14,0,7.2,2.86,9.72,9.76,1.76,4.88,6.5,8.13,12.43,10.91A13.44,13.44,0,0,0,116,95.18c5.69,0,7.47-6,6.87-12.25-.65-5.35,4.92-10.08,9.27-10.08m-20,40c4.16,0,7.74-.68,8.12-3.19.76-4.72-7-6.44-12.55-9.44a3.15,3.15,0,0,0-1.52-.42c-4.72,0-7.6,11.95-5.15,12.18,2.77.27,7.19.87,11.1.87m9.45,58.67c.68,0,1.48-.53,2.41-1.85,3.29-4.66,1.81-8.75-2.22-9.06l-.57,0c-2.4,0-4.07,1.27-3.09,4.8.76,2.73,1.75,6.14,3.47,6.14m-21.61,0c1.72,0,2.71-3.41,3.47-6.14,1-3.54-.69-4.8-3.09-4.8l-.57,0c-4,.31-5.51,4.39-2.22,9.06.93,1.32,1.73,1.85,2.41,1.85M132.13,68.85h0a14,14,0,0,0-10,4.87,12.34,12.34,0,0,0-3.28,9.63c.3,3.2-.2,6-1.27,7.21a1.93,1.93,0,0,1-1.62.62,9.39,9.39,0,0,1-3.86-1.07c-6-2.82-9.22-5.49-10.35-8.64-2.2-6-6.89-12.4-13.49-12.4a8.32,8.32,0,0,0-6.71,3.28l0,.05,0,0c-4.17,5.87,0,12.12,2.73,16.25,1,1.44,2.55,3.85,2.58,4.71.05,1.33-.42,2.34-1.34,4.18a22.6,22.6,0,0,0-2.86,12c.24,7.35,4.34,9.76,6.54,11l.2.11c-.27.42-.65.94-1,1.36-2.22,3-5.93,8.08-2.93,16.18,2.13,5.7,1.52,6.85.58,8.59A20,20,0,0,0,85,149c-1,2.44-2.54,6.25.46,9.37-7.88,4.59-11.1,10.86-8.64,17v0l0,0c1.42,3.33,3.7,5.35,5.91,7.31,2.88,2.55,5.86,5.19,8,11.73v0l0,.05c1.3,3.72,3.36,5.61,6.12,5.61,4.61,0,7-5.27,10.28-12.56.89-1.95,2.18-4.82,3.26-6.7,1.06,1.87,2.34,4.7,3.22,6.64,3.28,7.25,5.65,12.49,10.26,12.49,2.76,0,4.82-1.89,6.13-5.62l0,0,0,0c2.12-6.58,5.33-9.5,8.43-12.33,2.31-2.11,4.7-4.28,6.11-7.61l0,0v0a9.88,9.88,0,0,0-.25-8.09c-2.11-4.47-6.9-7.18-9.44-8.35,2.07-2.28,3.2-4.81.69-9.38a9.79,9.79,0,0,0-4.53-4.17c2.93-1.89,4.53-5.3,4.53-10,0-3.61-.93-6.44-2.84-8.37a8.8,8.8,0,0,0-3.8-2.22c7.62-3.3,9-7.06,9.25-14.12a25.11,25.11,0,0,0-2-11.3,9.59,9.59,0,0,1-1-4.27c0-1,1.12-2.92,2.08-4.62,2.4-4.26,5.69-10.09,2.26-16.42l0-.08-.05-.09a8.43,8.43,0,0,0-7.38-4.06Zm-27.78,39.42a11.8,11.8,0,0,1,1.93-4.32c1.39.73,2.84,1.37,4.25,2a35,35,0,0,1,5.15,2.61,18.56,18.56,0,0,1-3.55.27,76,76,0,0,1-7.78-.54Zm17.48,55.19Z"/></g></g></svg>