<svg xmlns="http://www.w3.org/2000/svg" viewBox="0 0 1075.87 1157.96"><defs><style>.cls-1{fill:#fff;}</style></defs><g id="レイヤー_2" data-name="レイヤー 2"><g id="レイヤー_2-2" data-name="レイヤー 2"><polygon class="cls-1" points="537.94 0 557.89 375.75 650.4 12.65 596.93 384.64 757.94 50.06 633.39 402.01 855.87 110.58 665.68 427.12 939.9 191.57 692.38 458.87 1006.37 289.49 712.34 495.87 1052.36 400.07 724.67 536.5 1075.87 518.46 728.84 578.98 1075.87 639.5 724.67 621.47 1052.36 757.9 712.34 662.1 1006.37 868.47 692.38 699.09 939.9 966.4 665.68 730.84 855.87 1047.39 633.39 755.95 757.94 1107.91 596.93 773.33 650.4 1145.31 557.89 782.21 537.94 1157.96 517.98 782.21 425.48 1145.31 478.94 773.33 317.93 1107.91 442.48 755.95 220 1047.39 410.2 730.84 135.97 966.4 383.49 699.09 69.5 868.47 363.54 662.1 23.51 757.9 351.2 621.47 0 639.5 347.03 578.98 0 518.46 351.2 536.5 23.51 400.07 363.54 495.87 69.5 289.49 383.49 458.87 135.97 191.57 410.2 427.12 220 110.58 442.48 402.01 317.93 50.06 478.94 384.64 425.48 12.65 517.98 375.75 537.94 0"/></g></g></svg>