<svg xmlns="http://www.w3.org/2000/svg" viewBox="0 0 348.5 268.4"><defs><style>.cls-1,.cls-3{fill:#212121;}.cls-2,.cls-4{fill:#231815;}.cls-3,.cls-4{font-size:174.25px;font-family:ToppanBunkyuMidashiGothicStdN-ExtraBold-83pv-RKSJ-H, Toppan Bunkyu Midashi Gothic;}</style></defs><g id="レイヤー_2" data-name="レイヤー 2"><g id="レイヤー_2-2" data-name="レイヤー 2"><path class="cls-1" d="M55,39.94H47L76.14,9.87H89.47V44H76.14V20.74l4,1.65L59.07,44h-16L22,22.45,26,20.79V44H12.68V9.87H26Z" transform="translate(0 -8.8)"/><path class="cls-1" d="M97.73,9.87h13.33V44H97.73Z" transform="translate(0 -8.8)"/><path class="cls-1" d="M172.81,33.54l-5,2.83V9.87h13.33V44H167.85L127.7,20.74l5-2.88V44H119.33V9.87h13.33Z" transform="translate(0 -8.8)"/><path class="cls-1" d="M219.73,45.06A90.47,90.47,0,0,1,207,44.23a34.92,34.92,0,0,1-10-2.83,15.73,15.73,0,0,1-6.56-5.46,15.38,15.38,0,0,1-2.32-8.75,15.58,15.58,0,0,1,2.35-8.82,16.24,16.24,0,0,1,6.74-5.65,36.63,36.63,0,0,1,10.51-3,92.42,92.42,0,0,1,13.62-.91,64.31,64.31,0,0,1,16.56,1.81q6.69,1.82,10.21,5.15a11.49,11.49,0,0,1,3.78,7.91H238a6.73,6.73,0,0,0-2.35-2.26,15.3,15.3,0,0,0-5.11-1.79,48.73,48.73,0,0,0-9.23-.69,60.34,60.34,0,0,0-11.09.83A12.87,12.87,0,0,0,204,22.39a6.23,6.23,0,0,0-2,4.8,5.38,5.38,0,0,0,2,4.32,14.41,14.41,0,0,0,6.51,2.56,65.59,65.59,0,0,0,11.84.86,75.44,75.44,0,0,0,9-.46,39.25,39.25,0,0,0,6.93-1.41,49.09,49.09,0,0,0,6.22-2.4l1.28,1.55A22.16,22.16,0,0,1,236,41.75Q229.5,45.07,219.73,45.06ZM242.18,44a17.35,17.35,0,0,1,.43-3.62c.28-1.36.64-2.77,1.09-4.25s.88-2.86,1.31-4.18h-20.8v-5.6h28.42V44Z" transform="translate(0 -8.8)"/><path class="cls-1" d="M273.43,29.59v4.27H314V44H260.1V9.87h53.74V20H273.43v4.26h33.06v5.33Z" transform="translate(0 -8.8)"/><path class="cls-1" d="M321.68,9.87H335V44H321.68Z" transform="translate(0 -8.8)"/><path class="cls-2" d="M55,39.94H47L76.14,9.87H89.47V44H76.14V20.74l4,1.65L59.07,44h-16L22,22.45,26,20.79V44H12.68V9.87H26Z" transform="translate(0 -8.8)"/><path class="cls-2" d="M97.73,9.87h13.33V44H97.73Z" transform="translate(0 -8.8)"/><path class="cls-2" d="M172.81,33.54l-5,2.83V9.87h13.33V44H167.85L127.7,20.74l5-2.88V44H119.33V9.87h13.33Z" transform="translate(0 -8.8)"/><path class="cls-2" d="M219.73,45.06A90.47,90.47,0,0,1,207,44.23a34.92,34.92,0,0,1-10-2.83,15.73,15.73,0,0,1-6.56-5.46,15.38,15.38,0,0,1-2.32-8.75,15.58,15.58,0,0,1,2.35-8.82,16.24,16.24,0,0,1,6.74-5.65,36.63,36.63,0,0,1,10.51-3,92.42,92.42,0,0,1,13.62-.91,64.31,64.31,0,0,1,16.56,1.81q6.69,1.82,10.21,5.15a11.49,11.49,0,0,1,3.78,7.91H238a6.73,6.73,0,0,0-2.35-2.26,15.3,15.3,0,0,0-5.11-1.79,48.73,48.73,0,0,0-9.23-.69,60.34,60.34,0,0,0-11.09.83A12.87,12.87,0,0,0,204,22.39a6.23,6.23,0,0,0-2,4.8,5.38,5.38,0,0,0,2,4.32,14.41,14.41,0,0,0,6.51,2.56,65.59,65.59,0,0,0,11.84.86,75.44,75.44,0,0,0,9-.46,39.25,39.25,0,0,0,6.93-1.41,49.09,49.09,0,0,0,6.22-2.4l1.28,1.55A22.16,22.16,0,0,1,236,41.75Q229.5,45.07,219.73,45.06ZM242.18,44a17.35,17.35,0,0,1,.43-3.62c.28-1.36.64-2.77,1.09-4.25s.88-2.86,1.31-4.18h-20.8v-5.6h28.42V44Z" transform="translate(0 -8.8)"/><path class="cls-2" d="M273.43,29.59v4.27H314V44H260.1V9.87h53.74V20H273.43v4.26h33.06v5.33Z" transform="translate(0 -8.8)"/><path class="cls-2" d="M321.68,9.87H335V44H321.68Z" transform="translate(0 -8.8)"/><text class="cls-3" transform="translate(0 217.87)">民藝</text><text class="cls-4" transform="translate(0 217.87)">民藝</text></g></g></svg>